<svg xmlns:xlink="http://www.w3.org/1999/xlink" xmlns="http://www.w3.org/2000/svg" fill="none" preserveAspectRatio="none" viewBox="0 0 1440 1045" width="1440"  height="1045" ><g opacity="0.15" fill="none"><g filter="url(#home-dark_svg__a)" fill="none"><path fill="url(&quot;#home-dark_svg__b&quot;)" d="M574.024-14.844 1554.4-21c49.73 49.656-256.96 249.617 134.98 448.139 255.21 129.271 95.36 450.601-384.16 606.961-515.216 167.99-1728.23 153.95-1771.055 183.45l-.898 2.45c-.553-.85-.242-1.67.898-2.45L-12.068-21l586.092 6.156Z"></path></g><g filter="url(#home-dark_svg__c)" fill="none"><path fill="url(&quot;#home-dark_svg__d&quot;)" d="M-276.018-43.977 824.573-53c55.828 72.784 331.237 414.417 0 733.555-370.851 357.305-490.48 60.453-1232.183 731.755-345.632 312.82-989.25 307.15-1034.83 346.71l-1.96 6.98c-1.24-2.5-.54-4.81 1.96-6.98L-933.98-53l657.962 9.023Z"></path></g><g filter="url(#home-dark_svg__e)" fill="none"><path fill="url(&quot;#home-dark_svg__f&quot;)" d="M259.126 545.017C515.61 303.398 250.814 55.145 86.356-38.779L-613.63-74-692 1526.81c265.983 120.93 748.077 280.72 548.59-47.54-249.359-410.33 81.932-632.229 402.536-934.253Z"></path></g><rect fill="url(&quot;#home-dark_svg__g&quot;)"></rect></g><defs><linearGradient id="home-dark_svg__b" x1="1405.21" x2="1340.51" y1="-27.156" y2="959.445" gradientUnits="userSpaceOnUse"><stop stop-color="#F8B8BC"></stop><stop offset="0.338" stop-color="#FA9898"></stop><stop offset="1" stop-color="#BEE4BE"></stop></linearGradient><linearGradient id="home-dark_svg__d" x1="657.092" x2="533.655" y1="-62.023" y2="1379.74" gradientUnits="userSpaceOnUse"><stop stop-color="#FEF1C3"></stop><stop offset="0.338" stop-color="#FBAF59"></stop><stop offset="1" stop-color="#F86A1A"></stop></linearGradient><linearGradient id="home-dark_svg__f" x1="-693.781" x2="194.39" y1="497.468" y2="1081.5" gradientUnits="userSpaceOnUse"><stop stop-color="#00E0FF"></stop><stop offset="1" stop-color="#F0C"></stop></linearGradient><linearGradient id="home-dark_svg__g" x1="720" x2="720" y1="0" y2="1045" gradientUnits="userSpaceOnUse"><stop offset="0.415" stop-opacity="0"></stop><stop offset="0.724"></stop></linearGradient><filter id="home-dark_svg__a" width="2677" height="1641" x="-667" y="-221" color-interpolation-filters="sRGB" filterUnits="userSpaceOnUse"><feFlood flood-opacity="0" result="BackgroundImageFix"></feFlood><feBlend in="SourceGraphic" in2="BackgroundImageFix" result="shape"></feBlend><feGaussianBlur result="effect1_foregroundBlur_11573_201206" stdDeviation="100"></feGaussianBlur></filter><filter id="home-dark_svg__c" width="2830" height="2219" x="-1645" y="-253" color-interpolation-filters="sRGB" filterUnits="userSpaceOnUse"><feFlood flood-opacity="0" result="BackgroundImageFix"></feFlood><feBlend in="SourceGraphic" in2="BackgroundImageFix" result="shape"></feBlend><feGaussianBlur result="effect1_foregroundBlur_11573_201206" stdDeviation="100"></feGaussianBlur></filter><filter id="home-dark_svg__e" width="1458" height="2148" x="-892" y="-274" color-interpolation-filters="sRGB" filterUnits="userSpaceOnUse"><feFlood flood-opacity="0" result="BackgroundImageFix"></feFlood><feBlend in="SourceGraphic" in2="BackgroundImageFix" result="shape"></feBlend><feGaussianBlur result="effect1_foregroundBlur_11573_201206" stdDeviation="100"></feGaussianBlur></filter><linearGradient id="home-dark_svg__b" x1="1405.21" x2="1340.51" y1="-27.156" y2="959.445" gradientUnits="userSpaceOnUse"><stop stop-color="#F8B8BC"></stop><stop offset="0.338" stop-color="#FA9898"></stop><stop offset="1" stop-color="#BEE4BE"></stop></linearGradient><linearGradient id="home-dark_svg__d" x1="657.092" x2="533.655" y1="-62.023" y2="1379.74" gradientUnits="userSpaceOnUse"><stop stop-color="#FEF1C3"></stop><stop offset="0.338" stop-color="#FBAF59"></stop><stop offset="1" stop-color="#F86A1A"></stop></linearGradient><linearGradient id="home-dark_svg__f" x1="-693.781" x2="194.39" y1="497.468" y2="1081.5" gradientUnits="userSpaceOnUse"><stop stop-color="#00E0FF"></stop><stop offset="1" stop-color="#F0C"></stop></linearGradient><linearGradient id="home-dark_svg__g" x1="720" x2="720" y1="0" y2="1045" gradientUnits="userSpaceOnUse"><stop offset="0.415" stop-opacity="0"></stop><stop offset="0.724"></stop></linearGradient></defs></svg>